<?xml version="1.0" encoding="UTF-8" standalone="no"?>
<!-- Created with Inkscape (http://www.inkscape.org/) -->

<svg
   xmlns:dc="http://purl.org/dc/elements/1.1/"
   xmlns:cc="http://creativecommons.org/ns#"
   xmlns:rdf="http://www.w3.org/1999/02/22-rdf-syntax-ns#"
   xmlns:svg="http://www.w3.org/2000/svg"
   xmlns="http://www.w3.org/2000/svg"
   xmlns:sodipodi="http://sodipodi.sourceforge.net/DTD/sodipodi-0.dtd"
   xmlns:inkscape="http://www.inkscape.org/namespaces/inkscape"
   width="210mm"
   height="297mm"
   viewBox="0 0 210 297"
   version="1.1"
   id="svg1204"
   inkscape:version="0.92.4 (5da689c313, 2019-01-14)"
   sodipodi:docname="TradeUnafraidWithTagLine.svg">
  <defs
     id="defs1198" />
  <sodipodi:namedview
     id="base"
     pagecolor="#ffffff"
     bordercolor="#666666"
     borderopacity="1.0"
     inkscape:pageopacity="0.0"
     inkscape:pageshadow="2"
     inkscape:zoom="3.959798"
     inkscape:cx="331.56461"
     inkscape:cy="926.86847"
     inkscape:document-units="mm"
     inkscape:current-layer="layer1"
     showgrid="false"
     inkscape:window-width="3840"
     inkscape:window-height="2004"
     inkscape:window-x="-16"
     inkscape:window-y="-16"
     inkscape:window-maximized="1" />
  <metadata
     id="metadata1201">
    <rdf:RDF>
      <cc:Work
         rdf:about="">
        <dc:format>image/svg+xml</dc:format>
        <dc:type
           rdf:resource="http://purl.org/dc/dcmitype/StillImage" />
        <dc:title></dc:title>
      </cc:Work>
    </rdf:RDF>
  </metadata>
  <g
     inkscape:label="Layer 1"
     inkscape:groupmode="layer"
     id="layer1">
    <g
       id="g1652"
       transform="matrix(0.35277777,0,0,-0.35277777,109.91955,65.80063)"
       inkscape:export-filename="C:\Users\lee\tuLogo99x50.png"
       inkscape:export-xdpi="20.174755"
       inkscape:export-ydpi="20.174755">
      <path
         d="M 0,0 C 6.408,0.968 15.304,4.877 16.814,6.692 6.982,2.984 -3.202,1.396 -13.649,0.638 c 0.472,-0.163 0.882,-0.305 1.294,-0.444 0.4,-0.136 0.88,0.087 1.221,-0.454 -6.051,-0.238 -12.04,0.458 -18.017,1.35 C -18.798,-3.594 -8.029,-2.43 2.891,-1.296 2.046,-0.309 0.615,-1.108 0,0 M 26.944,9.088 C 26.693,9.017 26.669,8.717 26.701,8.432 26.732,8.155 27.012,8.248 27.192,8.205 28.85,7.808 30.507,7.413 32.367,6.969 31.012,5.625 29.562,4.745 28.169,3.819 23.731,0.872 19.034,-1.589 14.019,-3.407 8.736,-5.322 3.271,-5.955 -2.333,-5.857 c -6.232,0.107 -12.347,1.054 -18.455,2.153 -1.285,0.232 -2.573,0.436 -3.838,0.76 -2.167,0.555 -3.752,-0.622 -5.343,-1.782 -0.58,-0.423 -1.061,-0.985 -1.875,-1.318 0.293,5.712 0.753,11.353 -0.441,16.99 C -17.203,3.83 -2.023,4.219 13.264,9.799 12.19,10.155 11.153,9.744 10.145,9.536 5.2,8.517 0.224,8.011 -4.824,8.191 c -2.915,0.104 -5.743,0.732 -8.526,1.521 -3.12,0.885 -6.223,1.872 -8.976,3.663 -1.403,0.913 -2.757,1.959 -3.328,3.612 -0.682,1.975 -0.149,3.783 1.18,5.329 2.162,2.514 4.895,4.024 8.2,4.459 -0.187,-0.904 -1.054,-1.183 -1.644,-1.669 -2.586,-2.126 -3.336,-5.611 -1.673,-8.445 0.365,-0.622 0.814,-1.279 1.393,-1.668 0.589,-0.396 1.072,0.373 1.622,0.576 3.711,1.374 7.584,1.881 11.497,1.965 3.343,0.071 6.649,-0.399 9.919,-1.167 3.045,-0.714 6.062,-1.522 8.987,-2.613 2.225,-0.83 4.521,-1.472 6.678,-2.494 -8.371,6.015 -17.217,10.974 -27.629,12.587 3.136,0.641 6.298,0.292 9.445,0.31 3.335,-1.31 6.467,-3.038 9.615,-4.725 2.217,-1.189 4.32,-2.583 6.552,-3.745 0.192,-0.1 0.415,-0.157 0.719,-0.272 -0.53,1.889 -1.012,3.679 -1.535,5.457 -1.716,5.832 -2.923,11.772 -3.947,17.76 -1.311,7.664 -1.351,15.382 -0.987,23.097 0.213,4.514 0.774,9.023 1.616,13.48 0.128,0.684 -0.087,1.009 -0.733,0.691 -3.894,-1.919 -7.485,-0.831 -10.892,1.222 -0.922,0.555 -2.132,0.452 -2.894,-0.308 -0.637,-0.636 -1.439,-1.109 -2.154,-1.67 -0.506,-0.396 -1.127,-0.732 -0.399,-1.515 0.646,-0.694 1.312,-1.017 2.087,-0.332 0.674,0.595 1.309,1.209 2.16,1.559 1.126,0.463 2.135,0.146 2.933,-0.97 C 5.253,72.781 5.187,72.117 4.193,71.083 3.316,70.169 2.367,69.32 1.307,68.649 c -2.648,-1.674 -5.75,-1.016 -7.723,1.642 -0.291,0.393 -0.877,0.661 -0.82,1.292 -0.076,1.201 -0.108,2.406 -0.239,3.6 -0.164,1.495 -0.418,2.979 -0.616,4.47 -0.097,0.734 0.23,1.173 0.892,1.561 1.335,0.783 2.732,1.442 4.142,2.05 0.607,0.261 1.158,0.866 1.935,0.717 0.064,-0.69 -0.827,-0.666 -0.848,-1.26 0.139,-0.019 0.231,-0.062 0.295,-0.036 4.323,1.713 8.862,1.989 13.436,1.979 2.26,-0.005 3.153,-0.71 3.99,-2.73 1.304,-3.149 1.907,-6.458 2.376,-9.805 0.733,-5.238 1.686,-10.436 2.954,-15.573 1.283,-5.202 3.341,-10.178 4.576,-15.393 0.663,-2.801 1.376,-5.616 1.695,-8.466 0.485,-4.341 1.111,-8.689 1.061,-13.136 0.542,2.082 1.084,4.164 1.711,6.571 1.147,-3.689 1.027,-7.113 1.057,-10.531 0.016,-1.922 -0.986,-3.577 -1.975,-4.834 -0.637,-0.665 -1.289,-1.355 -2.262,-1.679"
         style="fill:#0acc00;fill-opacity:1;fill-rule:nonzero;stroke:none"
         id="path1654"
         inkscape:connector-curvature="0" />
    </g>
    <g
       id="g1656"
       transform="matrix(0.35277777,0,0,-0.35277777,101.44548,55.14237)"
       inkscape:export-filename="C:\Users\lee\tuLogo99x50.png"
       inkscape:export-xdpi="20.174755"
       inkscape:export-ydpi="20.174755">
      <path
         d="m 0,0 c -0.052,0.023 -0.105,0.041 -0.161,0.052 -0.12,0.017 -0.184,0.003 -0.378,0.027 -3.021,0.483 -5.958,0.316 -8.915,-0.631 -3.754,-1.202 -6.526,-3.425 -8.514,-6.814 -2.329,-3.971 -3.749,-8.281 -4.983,-12.661 -0.638,-2.265 -1.035,-4.598 -1.541,-6.899 -0.072,-0.137 -0.217,-0.281 -0.204,-0.409 0.282,-2.771 0.056,-5.549 0.134,-8.322 0.006,-0.218 -0.111,-0.507 0.333,-0.637 1.885,1.838 3.401,4.027 4.895,6.228 2.617,3.856 4.101,8.24 5.845,12.511 2.804,6.868 6.934,12.693 13.556,16.433 C 0.849,-0.681 0.806,-0.327 0,0"
         style="fill:#0acc00;fill-opacity:1;fill-rule:nonzero;stroke:none"
         id="path1658"
         inkscape:connector-curvature="0" />
    </g>
    <g
       id="g1660"
       transform="matrix(0.35277777,0,0,-0.35277777,121.35072,61.71007)"
       inkscape:export-filename="C:\Users\lee\tuLogo99x50.png"
       inkscape:export-xdpi="20.174755"
       inkscape:export-ydpi="20.174755">
      <path
         d="m 0,0 c -1.06,-1.375 -2.811,-1.818 -4.351,-2.453 -0.286,-0.118 -0.574,-0.236 -0.877,-0.299 -0.213,-0.044 -0.473,-0.383 -0.473,-0.383 0,0 0.273,-0.228 0.496,-0.282 1.637,-0.391 3.273,-0.781 5.107,-1.219 0.008,-0.028 0.01,-0.036 0.019,-0.064 -1.342,-1.318 -2.773,-2.187 -4.15,-3.102 -4.437,-2.948 -9.134,-5.408 -14.15,-7.226 -5.282,-1.915 -10.748,-2.548 -16.352,-2.451 -6.232,0.108 -12.346,1.055 -18.455,2.154 -1.285,0.232 -2.573,0.436 -3.838,0.76 -2.167,0.555 -3.752,-0.623 -5.343,-1.782 -0.58,-0.423 -1.061,-0.985 -1.875,-1.318 0.292,5.69 0.75,11.309 -0.426,16.923 -0.006,0.028 0.022,0.05 0.047,0.038 15.061,-7.087 30.221,-6.69 45.486,-1.118 -1.073,0.356 -2.109,-0.055 -3.118,-0.263 -4.945,-1.019 -9.922,-1.524 -14.969,-1.345 -2.916,0.104 -5.743,0.732 -8.525,1.521 -3.12,0.885 -6.224,1.872 -8.977,3.663 -1.403,0.913 -2.757,1.959 -3.328,3.612 -0.682,1.975 -0.149,3.783 1.18,5.329 2.162,2.514 4.896,4.024 8.2,4.46 4.686,1.406 9.293,0.935 13.827,-0.65 1.621,-0.566 3.181,-1.307 4.769,-1.968 5.265,-2.07 15.702,-8.189 16.821,-8.715 0.027,-0.012 0.051,0.018 0.043,0.047 -0.522,1.861 -0.998,3.628 -1.514,5.382 -1.716,5.832 -2.922,11.771 -3.947,17.76 -1.311,7.664 -1.35,15.382 -0.986,23.097 0.213,4.515 0.773,9.024 1.614,13.48 0.129,0.684 -0.086,1.009 -0.731,0.691 -3.887,-1.915 -7.47,-0.835 -10.871,1.209 -0.936,0.562 -2.158,0.454 -2.934,-0.313 -0.634,-0.627 -1.428,-1.096 -2.137,-1.652 -0.505,-0.397 -1.127,-0.732 -0.397,-1.515 0.645,-0.694 1.311,-1.016 2.087,-0.332 0.673,0.595 1.308,1.209 2.16,1.559 1.126,0.463 2.135,0.146 2.932,-0.969 0.791,-1.106 0.724,-1.77 -0.268,-2.804 -0.877,-0.913 -1.826,-1.763 -2.887,-2.434 -2.648,-1.674 -5.751,-1.016 -7.722,1.642 -0.291,0.393 -0.822,1.292 -0.822,1.292 -1.466,2.36 -2.429,4.913 -2.993,7.631 -0.223,1.074 0.196,1.829 0.994,2.429 2.7,2.027 5.536,3.851 8.831,4.718 2.454,0.646 5.009,0.63 7.54,0.634 1.922,0.002 3.846,0.026 5.767,-0.037 2.029,-0.066 2.767,-0.734 3.394,-2.64 1.908,-5.787 3.121,-11.759 4.727,-17.626 1.49,-5.442 3.346,-10.741 5.418,-15.993 1.98,-5.02 3.203,-10.303 4.271,-15.607 C -0.389,17.035 0.735,10.579 1.112,4.013 1.192,2.602 0.875,1.135 0,0 m -69.908,1.037 c -1.744,-4.271 -3.227,-8.656 -5.845,-12.512 -1.48,-2.18 -2.983,-4.35 -4.845,-6.179 -0.026,0.007 -0.027,0.008 -0.051,0.014 -0.028,1.299 -0.465,22.249 0.162,28.406 0.315,3.088 0.912,6.099 3.009,8.565 2.599,3.057 6.047,4.15 9.897,3.969 3.879,-0.183 7.126,-1.955 10.243,-4.122 0.15,-0.104 1.768,-1.267 0.986,-1.709 -6.622,-3.74 -10.752,-9.564 -13.556,-16.432 M 9.8,4.51 C 9.393,11.92 8.068,19.122 6.846,25.189 5.745,30.657 4.411,36.51 2.138,42.272 c -2.167,5.493 -3.842,10.431 -5.119,15.096 -0.553,2.019 -1.055,4.043 -1.586,6.185 -0.958,3.864 -1.949,7.861 -3.269,11.866 -2.268,6.886 -7.436,8.486 -11.376,8.616 -1.159,0.038 -2.318,0.048 -3.478,0.048 l -2.807,-0.007 c -2.838,-0.004 -6.056,-0.009 -9.521,-0.921 -4.942,-1.301 -8.925,-3.984 -11.841,-6.174 -3.578,-2.688 -5.182,-6.857 -4.29,-11.154 0.781,-3.768 2.149,-7.255 4.066,-10.367 0.348,-0.586 0.836,-1.377 1.28,-1.975 2.865,-3.862 7.122,-6.077 11.678,-6.076 1.932,0 3.849,0.405 5.644,1.183 0.022,0.01 0.045,-0.005 0.044,-0.029 -0.25,-6.485 -0.25,-14.624 1.187,-23.019 0.309,-1.807 0.617,-3.513 0.932,-5.138 -0.161,0.066 -0.325,0.131 -0.487,0.195 -0.43,0.18 -0.858,0.366 -1.287,0.552 -1.155,0.503 -2.465,1.073 -3.882,1.567 -3.746,1.309 -7.445,1.972 -10.996,1.972 -2.262,0 -4.506,-0.282 -6.695,-0.811 -0.012,0.004 -0.021,0.007 -0.033,0.011 -0.678,0.827 -1.552,1.65 -2.672,2.431 -3.571,2.483 -8.481,5.371 -14.801,5.669 -0.407,0.019 -0.81,0.029 -1.21,0.029 -1.791,0 -3.498,-0.214 -5.129,-0.594 l -44.152,-44.026 c 1.119,-1.324 16.415,-18.887 38.129,-16.128 5.478,0.697 12.773,6.568 24.118,4.96 l 0.018,-0.003 0.669,-0.119 c 6.214,-1.118 12.919,-2.17 19.846,-2.29 0.414,-0.008 0.827,-0.011 1.24,-0.011 6.734,0 12.697,0.975 18.229,2.981 5.43,1.968 10.811,4.713 15.997,8.157 l 0.525,0.346 c 1.424,0.934 3.566,2.791 5.363,4.574 0,0 3.931,3.671 3.328,14.642"
         style="fill:#0b52a8;fill-opacity:1;fill-rule:nonzero;stroke:none"
         id="path1662"
         inkscape:connector-curvature="0" />
    </g>
    <g
       id="g1664"
       transform="matrix(0.35277777,0,0,-0.35277777,80.619703,56.58481)"
       inkscape:export-filename="C:\Users\lee\tuLogo99x50.png"
       inkscape:export-xdpi="20.174755"
       inkscape:export-ydpi="20.174755">
      <path
         d="M 0,0 V 29.282 H -10.376 V 2.62 l 5.922,-7.075 z"
         style="fill:#0acc00;fill-opacity:1;fill-rule:nonzero;stroke:none"
         id="path1666"
         inkscape:connector-curvature="0" />
    </g>
    <g
       id="g1668"
       transform="matrix(0.35277777,0,0,-0.35277777,86.347863,36.58742)"
       inkscape:export-filename="C:\Users\lee\tuLogo99x50.png"
       inkscape:export-xdpi="20.174755"
       inkscape:export-ydpi="20.174755">
      <path
         d="M 0,0 H -10.375 V -50.823 L 0,-40.445 Z"
         style="fill:#0acc00;fill-opacity:1;fill-rule:nonzero;stroke:none"
         id="path1670"
         inkscape:connector-curvature="0" />
    </g>
    <g
       id="g1672"
       transform="matrix(0.35277777,0,0,-0.35277777,92.076193,31.93273)"
       inkscape:export-filename="C:\Users\lee\tuLogo99x50.png"
       inkscape:export-xdpi="20.174755"
       inkscape:export-ydpi="20.174755">
      <path
         d="M 0,0 H -10.376 V -47.776 L 0,-37.398 Z"
         style="fill:#0acc00;fill-opacity:1;fill-rule:nonzero;stroke:none"
         id="path1674"
         inkscape:connector-curvature="0" />
    </g>
    <g
       id="g1676"
       transform="matrix(0.35277777,0,0,-0.35277777,94.482073,41.82741)"
       inkscape:export-filename="C:\Users\lee\tuLogo99x50.png"
       inkscape:export-xdpi="20.174755"
       inkscape:export-ydpi="20.174755">
      <path
         d="m 0,0 4.437,-4.52 -48.482,-48.492 -11.024,13.169 c -2.386,2.85 -6.691,3.032 -9.307,0.395 l -1.193,-1.203 6.622,-7.854 14.497,-17.193 55.054,54.896 4.096,-4.173 3.724,18.185 z"
         style="fill:#0b52a8;fill-opacity:1;fill-rule:nonzero;stroke:none"
         id="path1678"
         inkscape:connector-curvature="0" />
    </g>
    <g
       id="g1680"
       transform="matrix(0.35277777,0,0,-0.35277777,44.331323,80.79196)"
       inkscape:export-filename="C:\Users\lee\tuLogo99x50.png"
       inkscape:export-xdpi="20.174755"
       inkscape:export-ydpi="20.174755">
      <path
         d="m 0,0 h -7.386 l 1.271,5.955 H 16.589 L 15.318,0 H 7.962 l -4.99,-23.544 h -7.963 z"
         style="fill:#0b52a8;fill-opacity:1;fill-rule:nonzero;stroke:none"
         id="path1682"
         inkscape:connector-curvature="0" />
    </g>
    <g
       id="g1684"
       transform="matrix(0.35277777,0,0,-0.35277777,53.228978,83.04176)"
       inkscape:export-filename="C:\Users\lee\tuLogo99x50.png"
       inkscape:export-xdpi="20.174755"
       inkscape:export-ydpi="20.174755">
      <path
         d="M 0,0 H 3.42 C 6.493,0 8.023,1.431 8.023,3.861 8.023,6.083 6.437,6.79 4.718,6.79 H 1.429 Z m -1.184,-5.558 -2.45,-11.609 h -7.702 l 6.262,29.5 H 6.648 c 6.329,0 9.484,-3.248 9.484,-7.441 0,-3.999 -2.297,-6.625 -5.673,-7.796 2.169,-1.262 2.903,-3.633 2.007,-7.999 -0.712,-3.326 -0.862,-5.187 -0.945,-6.264 H 3.866 c -0.015,0.915 0.139,2.88 0.973,6.688 0.662,3.075 0.448,4.921 -2.843,4.921 z"
         style="fill:#0b52a8;fill-opacity:1;fill-rule:nonzero;stroke:none"
         id="path1686"
         inkscape:connector-curvature="0" />
    </g>
    <g
       id="g1688"
       transform="matrix(0.35277777,0,0,-0.35277777,65.122634,84.78085)"
       inkscape:export-filename="C:\Users\lee\tuLogo99x50.png"
       inkscape:export-xdpi="20.174755"
       inkscape:export-ydpi="20.174755">
      <path
         d="M 0,0 C -0.206,4.435 -0.41,8.942 -0.347,11.982 H -0.526 C -1.814,8.569 -3.607,4.328 -5.597,0 Z m -8.063,-6.152 -2.776,-6.085 h -8.092 c 2.963,5.898 10.559,22.175 14.305,29.499 H 6.023 L 8.158,-12.237 H 0.294 l -0.343,6.085 z"
         style="fill:#0b52a8;fill-opacity:1;fill-rule:nonzero;stroke:none"
         id="path1690"
         inkscape:connector-curvature="0" />
    </g>
    <g
       id="g1692"
       transform="matrix(0.35277777,0,0,-0.35277777,72.277568,87.10439)"
       inkscape:export-filename="C:\Users\lee\tuLogo99x50.png"
       inkscape:export-xdpi="20.174755"
       inkscape:export-ydpi="20.174755">
      <path
         d="m 0,0 h 3.578 c 5.761,0 7.928,7.105 7.928,12.002 0,4.374 -2.159,6.14 -5.15,6.14 H 3.864 Z M -2.873,23.849 H 7.516 c 8.231,0 12.285,-5.438 12.285,-12.174 C 19.801,2.658 14.754,-5.65 3.832,-5.65 H -9.135 Z"
         style="fill:#0b52a8;fill-opacity:1;fill-rule:nonzero;stroke:none"
         id="path1694"
         inkscape:connector-curvature="0" />
    </g>
    <g
       id="g1696"
       transform="matrix(0.35277777,0,0,-0.35277777,87.554013,84.80636)"
       inkscape:export-filename="C:\Users\lee\tuLogo99x50.png"
       inkscape:export-xdpi="20.174755"
       inkscape:export-ydpi="20.174755">
      <path
         d="m 0,0 h -11.833 l -1.322,-6.253 H 0.8 l -2.019,-5.912 h -20.808 l 6.262,29.499 H 4.171 L 2.9,11.379 H -9.408 L -10.575,5.954 H 1.259 Z"
         style="fill:#0b52a8;fill-opacity:1;fill-rule:nonzero;stroke:none"
         id="path1698"
         inkscape:connector-curvature="0" />
    </g>
    <g
       id="g1700"
       transform="matrix(0.35277777,0,0,-0.35277777,97.035223,78.69113)"
       inkscape:export-filename="C:\Users\lee\tuLogo99x50.png"
       inkscape:export-xdpi="20.174755"
       inkscape:export-ydpi="20.174755">
      <path
         d="m 0,0 -4.095,-19.171 c -0.556,-2.607 -0.214,-5.095 3.247,-5.095 3.193,0 4.146,2.306 4.73,5.095 L 7.977,0 h 7.964 L 11.92,-18.932 c -1.397,-6.493 -4.101,-11.119 -13.429,-11.119 -9.21,0 -11.859,4.642 -10.377,11.578 L -7.965,0 Z"
         style="fill:#0acc00;fill-opacity:1;fill-rule:nonzero;stroke:none"
         id="path1702"
         inkscape:connector-curvature="0" />
    </g>
    <g
       id="g1704"
       transform="matrix(0.35277777,0,0,-0.35277777,102.28851,89.09772)"
       inkscape:export-filename="C:\Users\lee\tuLogo99x50.png"
       inkscape:export-xdpi="20.174755"
       inkscape:export-ydpi="20.174755">
      <path
         d="m 0,0 6.262,29.499 h 9.474 c 0,-10e-4 3.744,-18.941 3.744,-18.941 h 0.147 c 0.431,3.448 1.336,7.873 2.31,12.455 l 1.37,6.486 h 7.181 L 24.225,0 h -9.126 c 0,0 -3.847,20.118 -3.847,20.12 H 11.165 C 10.649,16.414 9.656,11.698 8.566,6.594 L 7.166,0 Z"
         style="fill:#0acc00;fill-opacity:1;fill-rule:nonzero;stroke:none"
         id="path1706"
         inkscape:connector-curvature="0" />
    </g>
    <g
       id="g1708"
       transform="matrix(0.35277777,0,0,-0.35277777,118.77932,84.78085)"
       inkscape:export-filename="C:\Users\lee\tuLogo99x50.png"
       inkscape:export-xdpi="20.174755"
       inkscape:export-ydpi="20.174755">
      <path
         d="M 0,0 C -0.206,4.435 -0.409,8.942 -0.347,11.982 H -0.526 C -1.813,8.569 -3.606,4.328 -5.596,0 Z m -8.063,-6.152 -2.776,-6.085 h -8.092 c 2.963,5.898 10.559,22.175 14.305,29.499 H 6.023 L 8.158,-12.237 H 0.294 l -0.343,6.085 z"
         style="fill:#0acc00;fill-opacity:1;fill-rule:nonzero;stroke:none"
         id="path1710"
         inkscape:connector-curvature="0" />
    </g>
    <g
       id="g1712"
       transform="matrix(0.35277777,0,0,-0.35277777,124.92122,78.69113)"
       inkscape:export-filename="C:\Users\lee\tuLogo99x50.png"
       inkscape:export-xdpi="20.174755"
       inkscape:export-ydpi="20.174755">
      <path
         d="M 0,0 H 19.729 L 18.457,-5.939 H 6.491 l -1.225,-5.799 h 11.218 l -1.286,-5.913 H 3.979 L 1.5,-29.499 h -7.763 z"
         style="fill:#0acc00;fill-opacity:1;fill-rule:nonzero;stroke:none"
         id="path1714"
         inkscape:connector-curvature="0" />
    </g>
    <g
       id="g1716"
       transform="matrix(0.35277777,0,0,-0.35277777,135.15039,83.04176)"
       inkscape:export-filename="C:\Users\lee\tuLogo99x50.png"
       inkscape:export-xdpi="20.174755"
       inkscape:export-ydpi="20.174755">
      <path
         d="M 0,0 H 3.42 C 6.493,0 8.023,1.431 8.023,3.861 8.023,6.083 6.437,6.79 4.719,6.79 H 1.431 Z m -1.183,-5.558 -2.451,-11.609 h -7.701 l 6.261,29.5 H 6.648 c 6.33,0 9.484,-3.248 9.484,-7.441 0,-3.999 -2.297,-6.625 -5.672,-7.796 2.17,-1.262 2.902,-3.633 2.006,-7.999 -0.711,-3.326 -0.862,-5.187 -0.945,-6.264 H 3.867 c -0.016,0.915 0.14,2.88 0.973,6.688 0.661,3.075 0.446,4.921 -2.844,4.921 z"
         style="fill:#0acc00;fill-opacity:1;fill-rule:nonzero;stroke:none"
         id="path1718"
         inkscape:connector-curvature="0" />
    </g>
    <g
       id="g1720"
       transform="matrix(0.35277777,0,0,-0.35277777,147.04457,84.78085)"
       inkscape:export-filename="C:\Users\lee\tuLogo99x50.png"
       inkscape:export-xdpi="20.174755"
       inkscape:export-ydpi="20.174755">
      <path
         d="M 0,0 C -0.207,4.435 -0.41,8.942 -0.348,11.982 H -0.526 C -1.814,8.569 -3.607,4.328 -5.597,0 Z m -8.063,-6.152 -2.776,-6.085 h -8.093 c 2.963,5.898 10.56,22.175 14.305,29.499 H 6.022 L 8.157,-12.237 H 0.294 l -0.344,6.085 z"
         style="fill:#0acc00;fill-opacity:1;fill-rule:nonzero;stroke:none"
         id="path1722"
         inkscape:connector-curvature="0" />
    </g>
    <g
       id="g1724"
       transform="matrix(0.35277777,0,0,-0.35277777,155.98047,78.69113)"
       inkscape:export-filename="C:\Users\lee\tuLogo99x50.png"
       inkscape:export-xdpi="20.174755"
       inkscape:export-ydpi="20.174755">
      <path
         d="m 0,0 -6.263,-29.499 h -7.922 L -7.922,0 Z"
         style="fill:#0acc00;fill-opacity:1;fill-rule:nonzero;stroke:none"
         id="path1726"
         inkscape:connector-curvature="0" />
    </g>
    <g
       id="g1728"
       transform="matrix(0.35277777,0,0,-0.35277777,158.95601,87.10439)"
       inkscape:export-filename="C:\Users\lee\tuLogo99x50.png"
       inkscape:export-xdpi="20.174755"
       inkscape:export-ydpi="20.174755">
      <path
         d="m 0,0 h 3.577 c 5.762,0 7.928,7.105 7.928,12.002 0,4.374 -2.16,6.14 -5.151,6.14 H 3.863 Z M -2.874,23.849 H 7.514 C 15.745,23.849 19.8,18.411 19.8,11.675 19.8,2.658 14.753,-5.65 3.83,-5.65 H -9.137 Z"
         style="fill:#0acc00;fill-opacity:1;fill-rule:nonzero;stroke:none"
         id="path1730"
         inkscape:connector-curvature="0" />
    </g>
    <g
       id="g1732"
       transform="matrix(0.35277777,0,0,-0.35277777,56.774643,93.64817)"
       inkscape:export-filename="C:\Users\lee\tuLogo99x50.png"
       inkscape:export-xdpi="20.174755"
       inkscape:export-ydpi="20.174755">
      <path
         d="m 0,0 c 0.402,0 0.744,0.141 1.026,0.432 0.281,0.282 0.422,0.633 0.422,1.046 0,0.573 -0.402,0.945 -1.036,0.945 h -1.91 L -1.931,0 Z M 0.634,3.7 C 1.991,3.7 2.866,2.875 2.866,1.618 2.866,0.773 2.574,0.08 2.001,-0.453 1.428,-0.996 0.684,-1.268 -0.211,-1.268 h -1.931 l -0.362,-2.07 H -3.921 L -2.685,3.7 Z"
         style="fill:#0b52a8;fill-opacity:1;fill-rule:nonzero;stroke:none"
         id="path1734"
         inkscape:connector-curvature="0" />
    </g>
    <g
       id="g1736"
       transform="matrix(0.35277777,0,0,-0.35277777,60.295893,92.77935)"
       inkscape:export-filename="C:\Users\lee\tuLogo99x50.png"
       inkscape:export-xdpi="20.174755"
       inkscape:export-ydpi="20.174755">
      <path
         d="m 0,0 h -1.951 l -0.402,-2.252 h 1.961 c 0.754,0 1.317,0.482 1.408,1.206 C 1.086,-0.442 0.684,0 0,0 M 0.261,-3.358 1.92,-5.801 H 0.281 l -1.528,2.342 h -1.317 l -0.402,-2.342 h -1.418 l 1.247,7.038 H 0.191 C 0.905,1.237 1.468,1.026 1.88,0.594 2.292,0.161 2.463,-0.392 2.393,-1.065 2.272,-2.242 1.498,-3.077 0.261,-3.358"
         style="fill:#0b52a8;fill-opacity:1;fill-rule:nonzero;stroke:none"
         id="path1738"
         inkscape:connector-curvature="0" />
    </g>
    <g
       id="g1740"
       transform="matrix(0.35277777,0,0,-0.35277777,64.444808,92.76866)"
       inkscape:export-filename="C:\Users\lee\tuLogo99x50.png"
       inkscape:export-xdpi="20.174755"
       inkscape:export-ydpi="20.174755">
      <path
         d="m 0,0 h -3.881 l -0.292,-1.679 h 3.69 l -0.211,-1.176 h -3.69 l -0.302,-1.76 h 3.952 l -0.222,-1.217 h -5.349 l 1.237,7.039 h 5.279 z"
         style="fill:#0b52a8;fill-opacity:1;fill-rule:nonzero;stroke:none"
         id="path1742"
         inkscape:connector-curvature="0" />
    </g>
    <g
       id="g1744"
       transform="matrix(0.35277777,0,0,-0.35277777,65.805613,94.58472)"
       inkscape:export-filename="C:\Users\lee\tuLogo99x50.png"
       inkscape:export-xdpi="20.174755"
       inkscape:export-ydpi="20.174755">
      <path
         d="m 0,0 c -0.583,0.554 -0.875,1.297 -0.875,2.232 0,1.217 0.413,2.242 1.237,3.057 0.825,0.814 1.86,1.216 3.107,1.216 1.046,0 1.87,-0.361 2.484,-1.086 L 5.008,4.585 C 4.595,5.028 4.042,5.249 3.349,5.249 2.574,5.249 1.92,4.967 1.368,4.394 0.814,3.821 0.533,3.127 0.533,2.323 c 0,-1.167 0.754,-1.9 1.971,-1.9 0.674,0 1.428,0.291 1.961,0.764 L 5.229,0.182 C 4.415,-0.492 3.449,-0.834 2.323,-0.834 1.347,-0.834 0.573,-0.553 0,0"
         style="fill:#0b52a8;fill-opacity:1;fill-rule:nonzero;stroke:none"
         id="path1746"
         inkscape:connector-curvature="0" />
    </g>
    <g
       id="g1748"
       transform="matrix(0.35277777,0,0,-0.35277777,68.826623,94.82588)"
       inkscape:export-filename="C:\Users\lee\tuLogo99x50.png"
       inkscape:export-xdpi="20.174755"
       inkscape:export-ydpi="20.174755">
      <path
         d="M 0,0 1.237,7.039 H 2.654 L 1.417,0 Z"
         style="fill:#0b52a8;fill-opacity:1;fill-rule:nonzero;stroke:none"
         id="path1750"
         inkscape:connector-curvature="0" />
    </g>
    <g
       id="g1752"
       transform="matrix(0.35277777,0,0,-0.35277777,70.684387,94.51378)"
       inkscape:export-filename="C:\Users\lee\tuLogo99x50.png"
       inkscape:export-xdpi="20.174755"
       inkscape:export-ydpi="20.174755">
      <path
         d="M 0,0 0.814,0.996 C 1.307,0.523 2.152,0.222 3.026,0.222 c 1.016,0 1.74,0.431 1.74,1.034 0,0.524 -0.412,0.775 -1.458,0.926 -1.659,0.231 -2.423,0.824 -2.423,1.92 0,0.654 0.282,1.177 0.844,1.589 0.563,0.412 1.288,0.613 2.183,0.613 1.116,0 1.87,-0.251 2.564,-0.854 L 5.671,4.504 C 5.229,4.907 4.605,5.108 3.801,5.108 2.886,5.108 2.262,4.756 2.262,4.233 2.262,3.8 2.735,3.509 3.68,3.369 5.37,3.126 6.154,2.494 6.154,1.397 6.154,0.664 5.862,0.07 5.289,-0.372 4.706,-0.814 3.932,-1.035 2.976,-1.035 1.8,-1.035 0.674,-0.644 0,0"
         style="fill:#0b52a8;fill-opacity:1;fill-rule:nonzero;stroke:none"
         id="path1754"
         inkscape:connector-curvature="0" />
    </g>
    <g
       id="g1756"
       transform="matrix(0.35277777,0,0,-0.35277777,74.014081,94.82588)"
       inkscape:export-filename="C:\Users\lee\tuLogo99x50.png"
       inkscape:export-xdpi="20.174755"
       inkscape:export-ydpi="20.174755">
      <path
         d="M 0,0 1.237,7.039 H 2.654 L 1.417,0 Z"
         style="fill:#0b52a8;fill-opacity:1;fill-rule:nonzero;stroke:none"
         id="path1758"
         inkscape:connector-curvature="0" />
    </g>
    <g
       id="g1760"
       transform="matrix(0.35277777,0,0,-0.35277777,77.833675,94.19441)"
       inkscape:export-filename="C:\Users\lee\tuLogo99x50.png"
       inkscape:export-xdpi="20.174755"
       inkscape:export-ydpi="20.174755">
      <path
         d="m 0,0 c 0.493,0.452 0.814,1.045 0.945,1.779 0.131,0.704 0.02,1.277 -0.312,1.71 -0.341,0.432 -0.854,0.653 -1.528,0.653 -0.694,0 -1.287,-0.221 -1.79,-0.674 C -3.188,3.016 -3.5,2.413 -3.63,1.678 -3.75,0.975 -3.64,0.412 -3.298,-0.021 c 0.332,-0.432 0.835,-0.653 1.508,-0.653 0.694,0 1.287,0.221 1.79,0.674 m -4.455,-0.905 c -0.573,0.694 -0.764,1.598 -0.573,2.704 0.192,1.117 0.674,1.992 1.448,2.645 0.765,0.643 1.7,0.966 2.816,0.966 C 0.352,5.41 1.197,5.057 1.78,4.364 2.353,3.669 2.544,2.764 2.353,1.659 2.162,0.552 1.679,-0.322 0.905,-0.976 0.131,-1.629 -0.814,-1.951 -1.931,-1.951 c -1.116,0 -1.95,0.352 -2.524,1.046"
         style="fill:#0b52a8;fill-opacity:1;fill-rule:nonzero;stroke:none"
         id="path1762"
         inkscape:connector-curvature="0" />
    </g>
    <g
       id="g1764"
       transform="matrix(0.35277777,0,0,-0.35277777,81.875983,92.34282)"
       inkscape:export-filename="C:\Users\lee\tuLogo99x50.png"
       inkscape:export-xdpi="20.174755"
       inkscape:export-ydpi="20.174755">
      <path
         d="M 0,0 H 1.408 L 0.171,-7.039 h -1.207 l -2.705,4.756 -0.301,-1.8 -0.523,-2.956 H -5.973 L -4.736,0 h 1.207 l 2.715,-4.776 0.321,1.94 z"
         style="fill:#0b52a8;fill-opacity:1;fill-rule:nonzero;stroke:none"
         id="path1766"
         inkscape:connector-curvature="0" />
    </g>
    <g
       id="g1768"
       transform="matrix(0.35277777,0,0,-0.35277777,89.091873,92.34282)"
       inkscape:export-filename="C:\Users\lee\tuLogo99x50.png"
       inkscape:export-xdpi="20.174755"
       inkscape:export-ydpi="20.174755">
      <path
         d="m 0,0 -0.221,-1.257 h -2.242 l -1.016,-5.782 h -1.418 l 1.016,5.782 H -6.104 L -5.882,0 Z"
         style="fill:#0b52a8;fill-opacity:1;fill-rule:nonzero;stroke:none"
         id="path1770"
         inkscape:connector-curvature="0" />
    </g>
    <g
       id="g1772"
       transform="matrix(0.35277777,0,0,-0.35277777,91.428353,92.77935)"
       inkscape:export-filename="C:\Users\lee\tuLogo99x50.png"
       inkscape:export-xdpi="20.174755"
       inkscape:export-ydpi="20.174755">
      <path
         d="m 0,0 h -1.951 l -0.402,-2.252 h 1.961 c 0.754,0 1.317,0.482 1.408,1.206 C 1.086,-0.442 0.684,0 0,0 M 0.261,-3.358 1.92,-5.801 H 0.281 l -1.528,2.342 h -1.317 l -0.402,-2.342 h -1.418 l 1.247,7.038 H 0.191 C 0.905,1.237 1.468,1.026 1.88,0.594 2.292,0.161 2.463,-0.392 2.393,-1.065 2.272,-2.242 1.498,-3.077 0.261,-3.358"
         style="fill:#0b52a8;fill-opacity:1;fill-rule:nonzero;stroke:none"
         id="path1774"
         inkscape:connector-curvature="0" />
    </g>
    <g
       id="g1776"
       transform="matrix(0.35277777,0,0,-0.35277777,94.835903,92.82895)"
       inkscape:export-filename="C:\Users\lee\tuLogo99x50.png"
       inkscape:export-xdpi="20.174755"
       inkscape:export-ydpi="20.174755">
      <path
         d="m 0,0 -1.82,-3.037 h 2.584 z m 1.408,-5.661 -0.352,1.358 h -3.63 l -0.815,-1.358 h -1.599 l 4.395,7.039 h 1.518 l 1.91,-7.039 z"
         style="fill:#0b52a8;fill-opacity:1;fill-rule:nonzero;stroke:none"
         id="path1778"
         inkscape:connector-curvature="0" />
    </g>
    <g
       id="g1780"
       transform="matrix(0.35277777,0,0,-0.35277777,98.076523,94.37905)"
       inkscape:export-filename="C:\Users\lee\tuLogo99x50.png"
       inkscape:export-xdpi="20.174755"
       inkscape:export-ydpi="20.174755">
      <path
         d="m 0,0 c 0.744,0 1.368,0.252 1.86,0.765 0.493,0.512 0.744,1.146 0.744,1.92 0,1.156 -0.653,1.819 -1.79,1.819 H -0.603 L -1.388,0 Z M 0.985,5.772 C 1.921,5.772 2.655,5.51 3.208,4.988 3.751,4.455 4.022,3.75 4.022,2.856 4.022,1.629 3.63,0.634 2.846,-0.12 2.062,-0.885 1.036,-1.267 -0.231,-1.267 h -2.795 l 1.236,7.039 z"
         style="fill:#0b52a8;fill-opacity:1;fill-rule:nonzero;stroke:none"
         id="path1782"
         inkscape:connector-curvature="0" />
    </g>
    <g
       id="g1784"
       transform="matrix(0.35277777,0,0,-0.35277777,100.58661,94.82588)"
       inkscape:export-filename="C:\Users\lee\tuLogo99x50.png"
       inkscape:export-xdpi="20.174755"
       inkscape:export-ydpi="20.174755">
      <path
         d="M 0,0 1.237,7.039 H 2.654 L 1.417,0 Z"
         style="fill:#0b52a8;fill-opacity:1;fill-rule:nonzero;stroke:none"
         id="path1786"
         inkscape:connector-curvature="0" />
    </g>
    <g
       id="g1788"
       transform="matrix(0.35277777,0,0,-0.35277777,104.65787,92.34282)"
       inkscape:export-filename="C:\Users\lee\tuLogo99x50.png"
       inkscape:export-xdpi="20.174755"
       inkscape:export-ydpi="20.174755">
      <path
         d="M 0,0 H 1.408 L 0.171,-7.039 h -1.206 l -2.705,4.756 -0.302,-1.8 -0.522,-2.956 H -5.972 L -4.735,0 h 1.206 l 2.715,-4.776 0.322,1.94 z"
         style="fill:#0b52a8;fill-opacity:1;fill-rule:nonzero;stroke:none"
         id="path1790"
         inkscape:connector-curvature="0" />
    </g>
    <g
       id="g1792"
       transform="matrix(0.35277777,0,0,-0.35277777,107.4446,93.79736)"
       inkscape:export-filename="C:\Users\lee\tuLogo99x50.png"
       inkscape:export-xdpi="20.174755"
       inkscape:export-ydpi="20.174755">
      <path
         d="M 0,0 0.201,1.156 H 3.379 L 2.836,-1.96 c -0.835,-0.734 -1.86,-1.106 -3.077,-1.106 -0.966,0 -1.73,0.272 -2.303,0.815 -0.573,0.532 -0.854,1.256 -0.854,2.171 0,1.307 0.401,2.362 1.196,3.157 0.794,0.794 1.84,1.196 3.147,1.196 1.126,0 2.001,-0.361 2.615,-1.085 L 2.544,2.333 C 2.151,2.796 1.599,3.026 0.875,3.026 0.04,3.026 -0.653,2.755 -1.196,2.212 -1.75,1.659 -2.021,0.976 -2.021,0.141 c 0,-1.257 0.713,-1.971 2,-1.971 0.614,0 1.187,0.192 1.741,0.574 L 1.94,0 Z"
         style="fill:#0b52a8;fill-opacity:1;fill-rule:nonzero;stroke:none"
         id="path1794"
         inkscape:connector-curvature="0" />
    </g>
    <g
       id="g1796"
       transform="matrix(0.35277777,0,0,-0.35277777,115.09685,94.19441)"
       inkscape:export-filename="C:\Users\lee\tuLogo99x50.png"
       inkscape:export-xdpi="20.174755"
       inkscape:export-ydpi="20.174755">
      <path
         d="m 0,0 c 0.492,0.452 0.814,1.045 0.944,1.779 0.131,0.704 0.021,1.277 -0.311,1.71 -0.342,0.432 -0.855,0.653 -1.529,0.653 -0.693,0 -1.287,-0.221 -1.79,-0.674 -0.502,-0.452 -0.814,-1.055 -0.945,-1.79 -0.12,-0.703 -0.01,-1.266 0.332,-1.699 0.332,-0.432 0.835,-0.653 1.509,-0.653 0.693,0 1.287,0.221 1.79,0.674 m -4.455,-0.905 c -0.573,0.694 -0.765,1.598 -0.573,2.704 0.191,1.117 0.674,1.992 1.448,2.645 0.764,0.643 1.699,0.966 2.815,0.966 1.117,0 1.961,-0.353 2.544,-1.046 C 2.353,3.669 2.544,2.764 2.353,1.659 2.161,0.552 1.679,-0.322 0.904,-0.976 0.13,-1.629 -0.815,-1.951 -1.931,-1.951 c -1.116,0 -1.951,0.352 -2.524,1.046"
         style="fill:#0b52a8;fill-opacity:1;fill-rule:nonzero;stroke:none"
         id="path1798"
         inkscape:connector-curvature="0" />
    </g>
    <g
       id="g1800"
       transform="matrix(0.35277777,0,0,-0.35277777,119.13933,92.34282)"
       inkscape:export-filename="C:\Users\lee\tuLogo99x50.png"
       inkscape:export-xdpi="20.174755"
       inkscape:export-ydpi="20.174755">
      <path
         d="M 0,0 H 1.407 L 0.171,-7.039 h -1.207 l -2.705,4.756 -0.302,-1.8 -0.522,-2.956 H -5.974 L -4.736,0 h 1.206 l 2.716,-4.776 0.321,1.94 z"
         style="fill:#0b52a8;fill-opacity:1;fill-rule:nonzero;stroke:none"
         id="path1802"
         inkscape:connector-curvature="0" />
    </g>
    <g
       id="g1804"
       transform="matrix(0.35277777,0,0,-0.35277777,125.53547,92.82895)"
       inkscape:export-filename="C:\Users\lee\tuLogo99x50.png"
       inkscape:export-xdpi="20.174755"
       inkscape:export-ydpi="20.174755">
      <path
         d="m 0,0 -1.819,-3.037 h 2.584 z m 1.408,-5.661 -0.351,1.358 h -3.631 l -0.815,-1.358 h -1.598 l 4.394,7.039 h 1.519 l 1.91,-7.039 z"
         style="fill:#0b52a8;fill-opacity:1;fill-rule:nonzero;stroke:none"
         id="path1806"
         inkscape:connector-curvature="0" />
    </g>
    <g
       id="g1808"
       transform="matrix(0.35277777,0,0,-0.35277777,127.91086,94.57061)"
       inkscape:export-filename="C:\Users\lee\tuLogo99x50.png"
       inkscape:export-xdpi="20.174755"
       inkscape:export-ydpi="20.174755">
      <path
         d="M 0,0 C -0.482,0.573 -0.644,1.328 -0.473,2.272 L 0.241,6.315 H 1.659 L 0.936,2.222 C 0.734,1.046 1.217,0.393 2.263,0.393 c 1.076,0 1.87,0.704 2.071,1.859 L 5.058,6.315 H 6.466 L 5.752,2.243 C 5.39,0.201 4.163,-0.864 2.142,-0.864 1.187,-0.864 0.473,-0.573 0,0"
         style="fill:#0b52a8;fill-opacity:1;fill-rule:nonzero;stroke:none"
         id="path1810"
         inkscape:connector-curvature="0" />
    </g>
    <g
       id="g1812"
       transform="matrix(0.35277777,0,0,-0.35277777,133.46782,92.34282)"
       inkscape:export-filename="C:\Users\lee\tuLogo99x50.png"
       inkscape:export-xdpi="20.174755"
       inkscape:export-ydpi="20.174755">
      <path
         d="m 0,0 -0.221,-1.257 h -2.243 l -1.015,-5.782 h -1.417 l 1.015,5.782 H -6.104 L -5.883,0 Z"
         style="fill:#0b52a8;fill-opacity:1;fill-rule:nonzero;stroke:none"
         id="path1814"
         inkscape:connector-curvature="0" />
    </g>
    <g
       id="g1816"
       transform="matrix(0.35277777,0,0,-0.35277777,136.07781,94.19441)"
       inkscape:export-filename="C:\Users\lee\tuLogo99x50.png"
       inkscape:export-xdpi="20.174755"
       inkscape:export-ydpi="20.174755">
      <path
         d="m 0,0 c 0.492,0.452 0.814,1.045 0.944,1.779 0.131,0.704 0.021,1.277 -0.311,1.71 -0.342,0.432 -0.855,0.653 -1.529,0.653 -0.693,0 -1.287,-0.221 -1.79,-0.674 -0.502,-0.452 -0.814,-1.055 -0.945,-1.79 -0.12,-0.703 -0.01,-1.266 0.332,-1.699 0.332,-0.432 0.835,-0.653 1.509,-0.653 0.693,0 1.287,0.221 1.79,0.674 m -4.455,-0.905 c -0.573,0.694 -0.765,1.598 -0.573,2.704 0.191,1.117 0.674,1.992 1.448,2.645 0.764,0.643 1.699,0.966 2.815,0.966 1.117,0 1.961,-0.353 2.544,-1.046 C 2.353,3.669 2.544,2.764 2.353,1.659 2.161,0.552 1.679,-0.322 0.904,-0.976 0.13,-1.629 -0.814,-1.951 -1.931,-1.951 c -1.116,0 -1.951,0.352 -2.524,1.046"
         style="fill:#0b52a8;fill-opacity:1;fill-rule:nonzero;stroke:none"
         id="path1818"
         inkscape:connector-curvature="0" />
    </g>
    <g
       id="g1820"
       transform="matrix(0.35277777,0,0,-0.35277777,139.39646,93.64817)"
       inkscape:export-filename="C:\Users\lee\tuLogo99x50.png"
       inkscape:export-xdpi="20.174755"
       inkscape:export-ydpi="20.174755">
      <path
         d="m 0,0 c 0.402,0 0.744,0.141 1.025,0.432 0.283,0.282 0.423,0.633 0.423,1.046 0,0.573 -0.402,0.945 -1.036,0.945 h -1.91 L -1.931,0 Z M 0.634,3.7 C 1.991,3.7 2.866,2.875 2.866,1.618 2.866,0.773 2.574,0.08 2.001,-0.453 1.428,-0.996 0.684,-1.268 -0.211,-1.268 h -1.931 l -0.362,-2.07 H -3.922 L -2.685,3.7 Z"
         style="fill:#0b52a8;fill-opacity:1;fill-rule:nonzero;stroke:none"
         id="path1822"
         inkscape:connector-curvature="0" />
    </g>
    <g
       id="g1824"
       transform="matrix(0.35277777,0,0,-0.35277777,141.37431,94.82588)"
       inkscape:export-filename="C:\Users\lee\tuLogo99x50.png"
       inkscape:export-xdpi="20.174755"
       inkscape:export-ydpi="20.174755">
      <path
         d="M 0,0 1.237,7.039 H 2.655 L 1.418,0 Z"
         style="fill:#0b52a8;fill-opacity:1;fill-rule:nonzero;stroke:none"
         id="path1826"
         inkscape:connector-curvature="0" />
    </g>
    <g
       id="g1828"
       transform="matrix(0.35277777,0,0,-0.35277777,143.91713,94.37528)"
       inkscape:export-filename="C:\Users\lee\tuLogo99x50.png"
       inkscape:export-xdpi="20.174755"
       inkscape:export-ydpi="20.174755">
      <path
         d="M 0,0 H 3.6 L 3.378,-1.277 H -1.64 l 1.238,7.038 h 1.418 z"
         style="fill:#0b52a8;fill-opacity:1;fill-rule:nonzero;stroke:none"
         id="path1830"
         inkscape:connector-curvature="0" />
    </g>
    <g
       id="g1832"
       transform="matrix(0.35277777,0,0,-0.35277777,148.12291,94.19441)"
       inkscape:export-filename="C:\Users\lee\tuLogo99x50.png"
       inkscape:export-xdpi="20.174755"
       inkscape:export-ydpi="20.174755">
      <path
         d="m 0,0 c 0.492,0.452 0.814,1.045 0.944,1.779 0.131,0.704 0.021,1.277 -0.311,1.71 -0.342,0.432 -0.855,0.653 -1.529,0.653 -0.693,0 -1.287,-0.221 -1.79,-0.674 -0.502,-0.452 -0.814,-1.055 -0.945,-1.79 -0.12,-0.703 -0.01,-1.266 0.332,-1.699 0.332,-0.432 0.835,-0.653 1.509,-0.653 0.693,0 1.287,0.221 1.79,0.674 m -4.455,-0.905 c -0.573,0.694 -0.765,1.598 -0.573,2.704 0.191,1.117 0.674,1.992 1.448,2.645 0.764,0.643 1.699,0.966 2.815,0.966 1.117,0 1.961,-0.353 2.544,-1.046 C 2.353,3.669 2.544,2.764 2.353,1.659 2.161,0.552 1.679,-0.322 0.904,-0.976 0.13,-1.629 -0.815,-1.951 -1.931,-1.951 c -1.116,0 -1.951,0.352 -2.524,1.046"
         style="fill:#0b52a8;fill-opacity:1;fill-rule:nonzero;stroke:none"
         id="path1834"
         inkscape:connector-curvature="0" />
    </g>
    <g
       id="g1836"
       transform="matrix(0.35277777,0,0,-0.35277777,152.27528,92.34282)"
       inkscape:export-filename="C:\Users\lee\tuLogo99x50.png"
       inkscape:export-xdpi="20.174755"
       inkscape:export-ydpi="20.174755">
      <path
         d="m 0,0 -0.221,-1.257 h -2.243 l -1.015,-5.782 h -1.417 l 1.015,5.782 H -6.104 L -5.883,0 Z"
         style="fill:#0b52a8;fill-opacity:1;fill-rule:nonzero;stroke:none"
         id="path1838"
         inkscape:connector-curvature="0" />
    </g>
  </g>
</svg>
